#define santa1_width 8
#define santa1_height 8
static char santa1_bits[] = {
   0x20, 0x20, 0x60, 0x30, 0x30, 0x00, 0x20, 0x00};
