#define santa3_width 32
#define santa3_height 32
static char santa3_bits[] = {
   0x00, 0x00, 0x20, 0x00, 0x00, 0x00, 0x70, 0x00, 0x00, 0x00, 0x70, 0x00,
   0x00, 0x00, 0x70, 0x00, 0x00, 0x00, 0xf0, 0x00, 0x00, 0x00, 0xf0, 0x00,
   0x00, 0x00, 0xf8, 0x00, 0x00, 0x00, 0xf8, 0x00, 0x00, 0x00, 0xfc, 0x08,
   0x00, 0x00, 0xfe, 0x0f, 0x00, 0x00, 0xff, 0x0f, 0x00, 0x00, 0xff, 0x00,
   0x00, 0x00, 0xff, 0x00, 0x00, 0x80, 0xff, 0x00, 0x00, 0x80, 0xff, 0x00,
   0x00, 0x80, 0xff, 0x00, 0x00, 0x80, 0xff, 0x00, 0x00, 0x00, 0xff, 0x00,
   0x00, 0x00, 0xfe, 0x00, 0x00, 0x00, 0x7c, 0x00, 0x00, 0x00, 0x00, 0x00,
   0x00, 0x00, 0x00, 0x00, 0x00, 0x00, 0x00, 0x00, 0x00, 0x00, 0x00, 0x00,
   0x00, 0x00, 0x60, 0x00, 0x00, 0x00, 0x60, 0x00, 0x00, 0x00, 0xe0, 0x00,
   0x00, 0x00, 0xe0, 0x01, 0x00, 0x00, 0x00, 0x00, 0x00, 0x00, 0x00, 0x00,
   0x00, 0x00, 0x00, 0x00, 0x00, 0x00, 0x00, 0x00};
