#define santa2_width 16
#define santa2_height 16
static char santa2_bits[] = {
   0x00, 0x0c, 0x00, 0x0c, 0x00, 0x0c, 0x00, 0x0e, 0x00, 0x0e, 0x00, 0x3f,
   0x00, 0x0f, 0x00, 0x0f, 0x00, 0x0f, 0x00, 0x0e, 0x00, 0x00, 0x00, 0x08,
   0x00, 0x08, 0x00, 0x18, 0x00, 0x00, 0x00, 0x00};
