#define sleigh3_1_width 256
#define sleigh3_1_height 32
static char sleigh3_1_bits[] = {
   0x00, 0x00, 0xc0, 0x00, 0x00, 0x00, 0x00, 0x00, 0x00, 0x00, 0x00, 0x00,
   0x00, 0x00, 0x00, 0x00, 0x00, 0x00, 0x00, 0x00, 0x00, 0x00, 0x00, 0x00,
   0x00, 0x00, 0x00, 0x00, 0x00, 0x00, 0x00, 0x00, 0x00, 0x00, 0xc0, 0x00,
   0x00, 0x00, 0x00, 0x00, 0x00, 0x00, 0x00, 0x00, 0x00, 0x00, 0x00, 0x00,
   0x00, 0x00, 0x00, 0x00, 0x00, 0x00, 0x00, 0x00, 0x00, 0x00, 0x00, 0x00,
   0x00, 0x00, 0x00, 0x00, 0x00, 0x00, 0xc0, 0x00, 0x00, 0x00, 0x00, 0x00,
   0x00, 0x00, 0x00, 0x00, 0x00, 0x00, 0x00, 0x00, 0x00, 0x00, 0x00, 0x00,
   0x00, 0x00, 0x00, 0x00, 0x00, 0x00, 0x00, 0x00, 0x00, 0x00, 0x00, 0x00,
   0x00, 0x00, 0xc0, 0x00, 0x00, 0x00, 0x00, 0x00, 0x00, 0x00, 0x00, 0x00,
   0x00, 0x00, 0x00, 0x00, 0x00, 0x00, 0x00, 0x00, 0x00, 0x00, 0x00, 0x00,
   0x00, 0x00, 0x10, 0x01, 0x00, 0x00, 0x00, 0x00, 0x00, 0x00, 0xe0, 0x00,
   0x00, 0x00, 0x00, 0x00, 0x00, 0x00, 0x00, 0x00, 0x00, 0x42, 0x00, 0x00,
   0x00, 0x00, 0x00, 0x00, 0x40, 0x00, 0x00, 0x00, 0x00, 0x20, 0x08, 0x9b,
   0x00, 0x00, 0x00, 0x00, 0x00, 0x00, 0xe0, 0x00, 0x00, 0x00, 0x00, 0x00,
   0x00, 0x00, 0x00, 0x00, 0x02, 0x62, 0x00, 0x00, 0x00, 0x00, 0x00, 0x00,
   0x60, 0x00, 0x00, 0x00, 0x00, 0x60, 0x0c, 0xce, 0x00, 0x00, 0x00, 0x00,
   0x00, 0x00, 0xf0, 0x00, 0x00, 0x00, 0x00, 0x00, 0x00, 0x00, 0x00, 0x00,
   0x02, 0x32, 0x00, 0x00, 0x00, 0x00, 0x00, 0x40, 0x14, 0x00, 0x00, 0x00,
   0x00, 0xc0, 0x04, 0x23, 0x00, 0x00, 0x00, 0x00, 0x00, 0x00, 0xf0, 0x00,
   0x00, 0x00, 0x00, 0x00, 0x00, 0x00, 0x00, 0x00, 0x02, 0x12, 0x00, 0x00,
   0x00, 0x00, 0x00, 0x62, 0x0c, 0x00, 0x00, 0x00, 0x00, 0x80, 0x04, 0x13,
   0x00, 0x00, 0x00, 0x00, 0x00, 0x00, 0xf0, 0x7f, 0x00, 0x00, 0x00, 0x00,
   0x00, 0x00, 0x00, 0x00, 0x04, 0x0b, 0x00, 0x00, 0x00, 0x00, 0x00, 0x12,
   0x0c, 0x00, 0x00, 0x00, 0x00, 0x00, 0x0f, 0x0b, 0x00, 0x00, 0x00, 0x00,
   0x00, 0x00, 0xf0, 0x8f, 0x00, 0x00, 0x00, 0x00, 0x00, 0x00, 0x00, 0x00,
   0x0c, 0x04, 0x00, 0x00, 0x00, 0x00, 0x00, 0x16, 0x04, 0x00, 0x00, 0x00,
   0x00, 0x00, 0x0f, 0x0f, 0x00, 0x00, 0x00, 0x00, 0x00, 0x00, 0xf0, 0x0f,
   0x03, 0x00, 0x00, 0x00, 0x00, 0x00, 0x00, 0x00, 0x08, 0x06, 0x00, 0x00,
   0x00, 0x00, 0x00, 0x0c, 0x06, 0x00, 0x00, 0x00, 0x00, 0x00, 0x1e, 0x07,
   0x00, 0x00, 0x00, 0x00, 0x00, 0x00, 0xf0, 0x0f, 0x04, 0x00, 0x00, 0x00,
   0x00, 0x00, 0x00, 0x00, 0x10, 0x01, 0x00, 0x00, 0x00, 0x00, 0x00, 0x18,
   0x03, 0x00, 0x00, 0x00, 0x00, 0x00, 0x6c, 0x03, 0x00, 0x00, 0x00, 0x00,
   0xf0, 0x00, 0xfc, 0xf0, 0x0f, 0x00, 0x00, 0x00, 0x00, 0x00, 0x00, 0x00,
   0xe0, 0x00, 0x00, 0x00, 0x00, 0x00, 0x00, 0xb0, 0x01, 0x00, 0x00, 0x00,
   0x00, 0x00, 0xf0, 0x00, 0x00, 0x00, 0x00, 0x00, 0xf0, 0x00, 0xfe, 0xf0,
   0x3f, 0x00, 0x00, 0x00, 0x00, 0x00, 0x00, 0x00, 0xf0, 0x01, 0x00, 0x00,
   0x00, 0x00, 0x00, 0xf0, 0x00, 0x00, 0x00, 0x00, 0x00, 0x00, 0xf0, 0x00,
   0x00, 0x00, 0x00, 0x00, 0xf0, 0x00, 0xff, 0xf0, 0xcf, 0x03, 0x00, 0x00,
   0x00, 0x00, 0x00, 0x00, 0xf0, 0x00, 0x00, 0x00, 0x00, 0x00, 0x00, 0xf0,
   0x00, 0x00, 0x00, 0x00, 0x00, 0x00, 0xf0, 0x00, 0x00, 0x00, 0x00, 0x00,
   0xf0, 0x00, 0xff, 0xf0, 0x0f, 0x06, 0x00, 0x00, 0x00, 0x00, 0x00, 0x00,
   0xf0, 0x00, 0x00, 0x00, 0x00, 0x00, 0x00, 0xf0, 0x00, 0x00, 0x00, 0x00,
   0x00, 0x00, 0xf0, 0x00, 0x00, 0x00, 0x00, 0x00, 0xf0, 0x00, 0xff, 0xf0,
   0x01, 0x0f, 0x00, 0x00, 0x00, 0x00, 0x03, 0x00, 0xf0, 0x00, 0xf0, 0xf0,
   0x00, 0x00, 0x00, 0xf0, 0x00, 0x80, 0x00, 0x00, 0x0f, 0x80, 0xff, 0x00,
   0x00, 0x00, 0x00, 0x00, 0xf0, 0x00, 0xff, 0xf0, 0x00, 0x1f, 0x00, 0x00,
   0x00, 0x00, 0x07, 0x00, 0xf0, 0x1f, 0xf0, 0xfd, 0x01, 0x00, 0x00, 0xf0,
   0xff, 0x31, 0xe0, 0xf8, 0xef, 0xff, 0xf0, 0x00, 0x00, 0x00, 0x00, 0x00,
   0xf0, 0x01, 0xff, 0xf0, 0x00, 0x6f, 0x00, 0x00, 0x00, 0xe0, 0x0f, 0x00,
   0xf8, 0xc0, 0xff, 0xfe, 0x06, 0x00, 0x60, 0xff, 0x00, 0x7e, 0xf4, 0x07,
   0x0f, 0x00, 0xf0, 0x00, 0x00, 0x00, 0x00, 0x00, 0xf0, 0x03, 0xff, 0xf0,
   0x00, 0x8f, 0x00, 0x00, 0x00, 0x3e, 0x0f, 0x00, 0xf6, 0x00, 0xf0, 0x30,
   0xf8, 0x5d, 0x1f, 0xf0, 0x00, 0xf0, 0xf3, 0x00, 0x0d, 0x00, 0xf0, 0x00,
   0x00, 0x00, 0x00, 0x00, 0xf0, 0xff, 0xff, 0xff, 0x00, 0xff, 0xf1, 0x00,
   0xef, 0x01, 0xfc, 0xff, 0xff, 0x00, 0x00, 0x00, 0x00, 0xfc, 0xff, 0xff,
   0x00, 0x00, 0x00, 0x00, 0xf8, 0xff, 0xff, 0x00, 0x00, 0x00, 0x00, 0x00,
   0xf0, 0xff, 0xff, 0xff, 0x00, 0xff, 0xff, 0xff, 0x1f, 0x00, 0xfc, 0xff,
   0xff, 0x00, 0x00, 0x00, 0x00, 0xe0, 0xff, 0xff, 0x00, 0x00, 0x00, 0x00,
   0xf0, 0xff, 0xff, 0x00, 0x00, 0x00, 0x00, 0x00, 0xe0, 0xff, 0xff, 0xff,
   0x80, 0xff, 0xf0, 0x00, 0x0e, 0x00, 0xf8, 0xff, 0x7f, 0x00, 0x00, 0x00,
   0x00, 0xc0, 0xff, 0x7f, 0x00, 0x00, 0x00, 0x00, 0xf0, 0xff, 0x7f, 0x00,
   0x00, 0x00, 0x00, 0x00, 0xc0, 0xff, 0xff, 0xff, 0xc0, 0xff, 0x00, 0x00,
   0x00, 0x00, 0xf0, 0xff, 0x3f, 0x00, 0x00, 0x00, 0x00, 0xc0, 0xff, 0x3f,
   0x00, 0x00, 0x00, 0x00, 0xe0, 0xff, 0x3f, 0x00, 0x00, 0x00, 0x00, 0x00,
   0x00, 0x0f, 0x0f, 0xf0, 0xf0, 0x07, 0x00, 0x00, 0x00, 0x00, 0xe0, 0xff,
   0x0f, 0x00, 0x00, 0x00, 0x00, 0xc0, 0xff, 0x0f, 0x00, 0x00, 0x00, 0x00,
   0xc0, 0xff, 0x0f, 0x00, 0x00, 0x00, 0x00, 0x00, 0x00, 0x0f, 0x0f, 0xf0,
   0xf0, 0x07, 0x00, 0x00, 0x00, 0x00, 0xc0, 0x1f, 0x07, 0x00, 0x00, 0x00,
   0x00, 0xc0, 0xff, 0x0f, 0x00, 0x00, 0x00, 0x00, 0xc0, 0xbf, 0x0f, 0x00,
   0x00, 0x00, 0x00, 0x00, 0x00, 0x0f, 0x0f, 0xf0, 0xf8, 0x03, 0x00, 0x00,
   0x00, 0x00, 0xc0, 0x0f, 0x07, 0x00, 0x00, 0x00, 0x00, 0xc0, 0x8f, 0x0f,
   0x00, 0x00, 0x00, 0x00, 0xc0, 0x0f, 0x0f, 0x00, 0x00, 0x00, 0x00, 0x00,
   0x00, 0x0f, 0x0f, 0xf0, 0xfc, 0x01, 0x00, 0x00, 0x00, 0x00, 0xc0, 0x0f,
   0x07, 0x00, 0x00, 0x00, 0x00, 0xc0, 0x0f, 0x07, 0x00, 0x00, 0x00, 0x00,
   0x80, 0x0f, 0x07, 0x00, 0x00, 0x00, 0x00, 0x00, 0xff, 0xff, 0xff, 0xff,
   0xff, 0x00, 0x00, 0x00, 0x00, 0x00, 0xc0, 0x01, 0x03, 0x00, 0x00, 0x00,
   0x00, 0xc0, 0x03, 0x07, 0x00, 0x00, 0x00, 0x00, 0x80, 0x07, 0x07, 0x00,
   0x00, 0x00, 0x00, 0x00, 0xff, 0xff, 0xff, 0xff, 0x7f, 0x00, 0x00, 0x00,
   0x00, 0x00, 0xe0, 0x00, 0x03, 0x00, 0x00, 0x00, 0x00, 0xc0, 0x01, 0x03,
   0x00, 0x00, 0x00, 0x00, 0x80, 0x03, 0x07, 0x00, 0x00, 0x00, 0x00, 0x00,
   0xff, 0xff, 0xff, 0xff, 0x3f, 0x00, 0x00, 0x00, 0x00, 0x00, 0xe0, 0x00,
   0x03, 0x00, 0x00, 0x00, 0x00, 0xc0, 0x01, 0x03, 0x00, 0x00, 0x00, 0x00,
   0x80, 0x03, 0x07, 0x00, 0x00, 0x00, 0x00, 0x00, 0xff, 0xff, 0xff, 0xff,
   0x1f, 0x00, 0x00, 0x00, 0x00, 0x00, 0x60, 0x00, 0x03, 0x00, 0x00, 0x00,
   0x00, 0xc0, 0x00, 0x03, 0x00, 0x00, 0x00, 0x00, 0x80, 0x01, 0x03, 0x00,
   0x00, 0x00, 0x00, 0x00};
