#define sleigh2_1_width 128
#define sleigh2_1_height 16
static char sleigh2_1_bits[] = {
   0x00, 0x00, 0x00, 0x00, 0x00, 0x00, 0x00, 0x00, 0x00, 0x00, 0x00, 0x00,
   0x00, 0x00, 0x00, 0x00, 0x00, 0x00, 0x00, 0x00, 0x00, 0x00, 0x00, 0x00,
   0x00, 0x00, 0x00, 0x00, 0x00, 0x00, 0x00, 0x00, 0x00, 0x00, 0x00, 0x00,
   0x00, 0x00, 0x80, 0x00, 0x00, 0x00, 0x08, 0x00, 0x00, 0x50, 0x00, 0x00,
   0x00, 0x00, 0x00, 0x00, 0x00, 0x00, 0x40, 0x00, 0x00, 0x80, 0x06, 0x00,
   0x80, 0x12, 0x00, 0x00, 0x68, 0xf0, 0x00, 0x00, 0x00, 0x00, 0x12, 0x00,
   0x00, 0x40, 0x02, 0x00, 0x00, 0x13, 0x00, 0x00, 0x48, 0x30, 0x01, 0x00,
   0x00, 0x00, 0x20, 0x00, 0x00, 0x20, 0x02, 0x00, 0x00, 0x36, 0x00, 0x00,
   0x7c, 0xc0, 0x03, 0x00, 0x00, 0x00, 0x08, 0x00, 0x00, 0x40, 0x01, 0x00,
   0x00, 0x0c, 0x00, 0x00, 0x7c, 0xc0, 0x1b, 0x00, 0x00, 0x00, 0x0c, 0x00,
   0x00, 0xc0, 0x00, 0x00, 0x00, 0x0c, 0x00, 0x00, 0x5c, 0xc0, 0x31, 0x00,
   0x00, 0x01, 0x0c, 0xcc, 0x00, 0xc0, 0x00, 0x00, 0x03, 0x0f, 0x00, 0x00,
   0x74, 0xc0, 0xb0, 0x00, 0x80, 0x03, 0x8c, 0xef, 0x02, 0xf8, 0xe0, 0x3e,
   0x03, 0x0c, 0x00, 0x00, 0x0c, 0xc0, 0xf0, 0x0d, 0x1b, 0xfe, 0x0f, 0x00,
   0xe0, 0xff, 0x00, 0x00, 0xfc, 0x0f, 0x00, 0x00, 0xf8, 0xff, 0xf0, 0x0c,
   0x02, 0xfc, 0x07, 0x00, 0x80, 0x7f, 0x00, 0x00, 0xfc, 0x07, 0x00, 0x00,
   0x30, 0xc3, 0x38, 0x00, 0x00, 0xf8, 0x03, 0x00, 0x80, 0x3f, 0x00, 0x00,
   0xf8, 0x03, 0x00, 0x00, 0x30, 0xc3, 0x18, 0x00, 0x00, 0x38, 0x03, 0x00,
   0x80, 0x33, 0x00, 0x00, 0x38, 0x03, 0x00, 0x00, 0x30, 0xc3, 0x0c, 0x00,
   0x00, 0x18, 0x01, 0x00, 0x80, 0x31, 0x00, 0x00, 0x30, 0x03, 0x00, 0x00,
   0xff, 0xff, 0x07, 0x00, 0x00, 0x08, 0x01, 0x00, 0x80, 0x11, 0x00, 0x00,
   0x10, 0x03, 0x00, 0x00};
