#define sleigh2_0_width 128
#define sleigh2_0_height 16
static char sleigh2_0_bits[] = {
   0x00, 0x00, 0x00, 0x00, 0x00, 0x00, 0x00, 0x00, 0x00, 0x00, 0x00, 0x00,
   0x00, 0x00, 0x00, 0x00, 0x00, 0x00, 0x00, 0x00, 0x00, 0x00, 0x00, 0x00,
   0x00, 0x00, 0x08, 0x00, 0x00, 0x00, 0x00, 0x00, 0x00, 0x00, 0x00, 0x00,
   0x00, 0x00, 0x40, 0x00, 0x00, 0x00, 0x08, 0x00, 0x00, 0x54, 0x00, 0x00,
   0x00, 0x00, 0x00, 0x00, 0x00, 0x00, 0xc2, 0x00, 0x00, 0x10, 0x00, 0x00,
   0x80, 0x90, 0x00, 0x00, 0x68, 0x30, 0x00, 0x00, 0x00, 0x00, 0x40, 0x00,
   0x00, 0x10, 0x00, 0x00, 0x00, 0x13, 0x00, 0x00, 0x48, 0x30, 0x00, 0x00,
   0x00, 0x00, 0x04, 0x00, 0x00, 0x20, 0x02, 0x00, 0x00, 0x37, 0x00, 0x00,
   0x7c, 0xc0, 0x03, 0x00, 0x00, 0x00, 0x08, 0x00, 0x00, 0xc0, 0x00, 0x00,
   0x00, 0x0c, 0x00, 0x00, 0x7c, 0xc0, 0x0b, 0x00, 0x00, 0x00, 0x0c, 0x00,
   0x00, 0xc0, 0x00, 0x00, 0x00, 0x0c, 0x00, 0x00, 0x5c, 0xc0, 0x31, 0x00,
   0x00, 0x01, 0x0c, 0x08, 0x00, 0xc0, 0x80, 0x00, 0xfc, 0x0f, 0x00, 0x00,
   0x74, 0xc0, 0x71, 0x00, 0x00, 0x03, 0x0f, 0xfc, 0x70, 0xcd, 0xf8, 0x7f,
   0x04, 0x0c, 0x00, 0x00, 0x0c, 0x80, 0xf0, 0x0c, 0x23, 0xfe, 0x0f, 0x00,
   0xe0, 0xff, 0x00, 0x00, 0xfc, 0x0f, 0x00, 0x00, 0xf8, 0xff, 0xf0, 0x0c,
   0x03, 0xfc, 0x07, 0x00, 0xc0, 0xff, 0x00, 0x00, 0xfc, 0x0f, 0x00, 0x00,
   0x30, 0xc3, 0x38, 0x00, 0x00, 0xfc, 0x03, 0x00, 0xc0, 0x7f, 0x00, 0x00,
   0xfc, 0x07, 0x00, 0x00, 0x30, 0xc3, 0x18, 0x00, 0x00, 0xfc, 0x03, 0x00,
   0xc0, 0x70, 0x00, 0x00, 0x7c, 0x07, 0x00, 0x00, 0x30, 0xc3, 0x0c, 0x00,
   0x00, 0x06, 0x0e, 0x00, 0x20, 0xe0, 0x00, 0x00, 0x08, 0x0c, 0x00, 0x00,
   0xff, 0xff, 0x07, 0x00, 0x00, 0x03, 0x08, 0x00, 0x30, 0x80, 0x00, 0x00,
   0x06, 0x00, 0x00, 0x00};
