#define sleigh3_2_width 256
#define sleigh3_2_height 32
static char sleigh3_2_bits[] = {
   0x00, 0x00, 0xc0, 0x00, 0x00, 0x00, 0x00, 0x00, 0x00, 0x00, 0x00, 0x00,
   0x00, 0x00, 0x00, 0x00, 0x00, 0x00, 0x00, 0x00, 0x00, 0x00, 0x00, 0x00,
   0x00, 0x00, 0x00, 0x00, 0x00, 0x00, 0x00, 0x00, 0x00, 0x00, 0xc0, 0x00,
   0x00, 0x00, 0x00, 0x00, 0x00, 0x00, 0x00, 0x00, 0x00, 0x00, 0x00, 0x00,
   0x00, 0x00, 0x00, 0x00, 0x00, 0x00, 0x00, 0x00, 0x00, 0x00, 0x00, 0x04,
   0x00, 0x00, 0x00, 0x00, 0x00, 0x00, 0xc0, 0x00, 0x00, 0x00, 0x00, 0x00,
   0x00, 0x00, 0x00, 0x00, 0x00, 0x04, 0x00, 0x00, 0x00, 0x00, 0x00, 0x00,
   0x00, 0x00, 0x00, 0x00, 0x00, 0x00, 0x00, 0x24, 0x00, 0x00, 0x00, 0x00,
   0x00, 0x00, 0xe0, 0x00, 0x00, 0x00, 0x00, 0x00, 0x00, 0x00, 0x00, 0x00,
   0x00, 0x04, 0x00, 0x00, 0x00, 0x00, 0x00, 0x00, 0x00, 0x00, 0x00, 0x00,
   0x00, 0x00, 0x10, 0x2c, 0x00, 0x00, 0x00, 0x00, 0x00, 0x00, 0xe0, 0x00,
   0x00, 0x00, 0x00, 0x00, 0x00, 0x00, 0x00, 0x00, 0x02, 0x88, 0x01, 0x00,
   0x00, 0x00, 0x00, 0x00, 0x90, 0x00, 0x00, 0x00, 0x00, 0x00, 0x10, 0xbc,
   0x00, 0x00, 0x00, 0x00, 0x00, 0x00, 0xf0, 0x00, 0x00, 0x00, 0x00, 0x00,
   0x00, 0x00, 0x00, 0x00, 0x02, 0x88, 0x00, 0x00, 0x00, 0x00, 0x00, 0x00,
   0xd0, 0x00, 0x00, 0x00, 0x00, 0x40, 0x10, 0xc4, 0x00, 0x00, 0x00, 0x00,
   0x00, 0x00, 0xf0, 0x00, 0x00, 0x00, 0x00, 0x00, 0x00, 0x00, 0x00, 0x00,
   0x02, 0xf0, 0x00, 0x00, 0x00, 0x00, 0x00, 0x11, 0x70, 0x00, 0x00, 0x00,
   0x00, 0x80, 0x11, 0x74, 0x00, 0x00, 0x00, 0x00, 0x00, 0x00, 0xf0, 0x00,
   0x00, 0x00, 0x00, 0x00, 0x00, 0x00, 0x00, 0x00, 0x04, 0x70, 0x00, 0x00,
   0x00, 0x00, 0x00, 0x09, 0x10, 0x00, 0x00, 0x00, 0x00, 0x00, 0x0b, 0x14,
   0x00, 0x00, 0x00, 0x00, 0x00, 0x00, 0xf0, 0x0f, 0x00, 0x00, 0x00, 0x00,
   0x00, 0x00, 0x00, 0x00, 0x04, 0x08, 0x00, 0x00, 0x00, 0x00, 0x00, 0x05,
   0x08, 0x00, 0x00, 0x00, 0x00, 0x00, 0x0e, 0x0f, 0x00, 0x00, 0x00, 0x00,
   0x00, 0x00, 0xf0, 0xef, 0x00, 0x00, 0x00, 0x00, 0x00, 0x00, 0x00, 0x00,
   0x0c, 0x0e, 0x00, 0x00, 0x00, 0x00, 0x00, 0x07, 0x04, 0x00, 0x00, 0x00,
   0x00, 0x00, 0x1c, 0x03, 0x00, 0x00, 0x00, 0x00, 0x00, 0x00, 0xf0, 0x0f,
   0x03, 0x00, 0x00, 0x00, 0x00, 0x00, 0x00, 0x00, 0x08, 0x04, 0x00, 0x00,
   0x00, 0x00, 0x00, 0x06, 0x06, 0x00, 0x00, 0x00, 0x00, 0x00, 0x9c, 0x03,
   0x00, 0x00, 0x00, 0x00, 0x00, 0x00, 0xf0, 0x0f, 0x04, 0x00, 0x00, 0x00,
   0x00, 0x00, 0x00, 0x00, 0x08, 0x03, 0x00, 0x00, 0x00, 0x00, 0x00, 0x0c,
   0x03, 0x00, 0x00, 0x00, 0x00, 0x00, 0xe8, 0x01, 0x00, 0x00, 0x00, 0x00,
   0xf0, 0x00, 0xfc, 0xf0, 0x0c, 0x00, 0x00, 0x00, 0x00, 0x00, 0x00, 0x00,
   0xf8, 0x00, 0x00, 0x00, 0x00, 0x00, 0x00, 0xf0, 0x00, 0x00, 0x00, 0x00,
   0x00, 0x00, 0xf0, 0x00, 0x00, 0x00, 0x00, 0x00, 0xf0, 0x00, 0xfe, 0xf0,
   0x1f, 0x00, 0x00, 0x00, 0x00, 0x00, 0x00, 0x00, 0xf0, 0x00, 0x00, 0x00,
   0x00, 0x00, 0x00, 0xf0, 0x00, 0x00, 0x00, 0x00, 0x00, 0x00, 0xf0, 0x00,
   0x00, 0x00, 0x00, 0x00, 0xf0, 0x00, 0xff, 0xf0, 0x6f, 0x00, 0x00, 0x00,
   0x00, 0x00, 0x00, 0x00, 0xf0, 0x00, 0x00, 0x00, 0x00, 0x00, 0x00, 0xf0,
   0x00, 0x00, 0x00, 0x00, 0x00, 0x00, 0xf0, 0x00, 0x00, 0x00, 0x00, 0x00,
   0xf0, 0x00, 0xff, 0xf0, 0x8f, 0x07, 0x00, 0x00, 0x00, 0x00, 0x00, 0x00,
   0xf0, 0x00, 0x00, 0x00, 0x00, 0x80, 0x3f, 0xf0, 0x00, 0x00, 0x00, 0x00,
   0x00, 0xf0, 0xf0, 0x00, 0x00, 0x00, 0x00, 0x00, 0xf0, 0x00, 0xff, 0xf0,
   0x03, 0x0f, 0x00, 0x00, 0x00, 0x00, 0x07, 0x00, 0xf8, 0x00, 0x00, 0xe0,
   0x00, 0xff, 0xc0, 0xf3, 0x00, 0x70, 0x00, 0x00, 0x00, 0x0d, 0xff, 0x00,
   0x00, 0x00, 0x00, 0x00, 0xf0, 0x00, 0xff, 0xf0, 0x00, 0x1f, 0x00, 0x00,
   0x00, 0x00, 0x07, 0x00, 0xf8, 0xeb, 0xf0, 0xf0, 0xf5, 0x0f, 0x00, 0xfc,
   0xff, 0xff, 0xf0, 0x00, 0xf7, 0x00, 0xf0, 0x00, 0x00, 0x00, 0x00, 0x00,
   0xf0, 0x03, 0xff, 0xf0, 0x00, 0x6f, 0x00, 0x00, 0x00, 0xfc, 0x0c, 0x00,
   0xf4, 0x80, 0xf7, 0xfe, 0x00, 0x0e, 0x00, 0xf0, 0x00, 0xf0, 0xff, 0xff,
   0x1f, 0x00, 0xf0, 0x00, 0x00, 0x00, 0x00, 0x00, 0xf0, 0x03, 0xff, 0xf0,
   0x00, 0xcf, 0x00, 0x00, 0xc0, 0x03, 0x0e, 0x00, 0xf6, 0x00, 0xf8, 0xf0,
   0x00, 0x1e, 0x00, 0xf0, 0x00, 0xe0, 0xf0, 0x00, 0x1f, 0x00, 0xf0, 0x00,
   0x00, 0x00, 0x00, 0x00, 0xf0, 0xff, 0xff, 0xff, 0x00, 0xff, 0xf0, 0x00,
   0x2f, 0x00, 0xf8, 0xff, 0xff, 0x00, 0x00, 0x00, 0x00, 0xfc, 0xff, 0xff,
   0x00, 0x00, 0x00, 0x00, 0xf6, 0xff, 0xff, 0x00, 0x00, 0x00, 0x00, 0x00,
   0xf0, 0xff, 0xff, 0xff, 0x00, 0xff, 0xff, 0xff, 0x3f, 0x00, 0xf0, 0xff,
   0xff, 0x00, 0x00, 0x00, 0x00, 0xf8, 0xff, 0xff, 0x00, 0x00, 0x00, 0x00,
   0xfc, 0xff, 0xff, 0x00, 0x00, 0x00, 0x00, 0x00, 0xe0, 0xff, 0xff, 0xff,
   0x80, 0xff, 0xf0, 0x00, 0x0f, 0x00, 0xe0, 0xff, 0xff, 0x00, 0x00, 0x00,
   0x00, 0xf0, 0xff, 0x7f, 0x00, 0x00, 0x00, 0x00, 0xf8, 0xff, 0x7f, 0x00,
   0x00, 0x00, 0x00, 0x00, 0xc0, 0xff, 0xff, 0xff, 0xc0, 0xff, 0x40, 0x00,
   0x08, 0x00, 0xe0, 0xff, 0x7f, 0x00, 0x00, 0x00, 0x00, 0xe0, 0xff, 0x3f,
   0x00, 0x00, 0x00, 0x00, 0xf0, 0xff, 0x3f, 0x00, 0x00, 0x00, 0x00, 0x00,
   0x00, 0x0f, 0x0f, 0xf0, 0xf0, 0x07, 0x00, 0x00, 0x00, 0x00, 0xc0, 0x0f,
   0x0f, 0x00, 0x00, 0x00, 0x00, 0xe0, 0xef, 0x0f, 0x00, 0x00, 0x00, 0x00,
   0xf0, 0x8f, 0x0f, 0x00, 0x00, 0x00, 0x00, 0x00, 0x00, 0x0f, 0x0f, 0xf0,
   0xf0, 0x03, 0x00, 0x00, 0x00, 0x00, 0x80, 0x9f, 0x0f, 0x00, 0x00, 0x00,
   0x00, 0x80, 0x0f, 0x0f, 0x00, 0x00, 0x00, 0x00, 0xe0, 0x0f, 0x0f, 0x00,
   0x00, 0x00, 0x00, 0x00, 0x00, 0x0f, 0x0f, 0xf0, 0xf8, 0x01, 0x00, 0x00,
   0x00, 0x00, 0x00, 0x9f, 0x03, 0x00, 0x00, 0x00, 0x00, 0x00, 0x0f, 0x0f,
   0x00, 0x00, 0x00, 0x00, 0xe0, 0x0f, 0x07, 0x00, 0x00, 0x00, 0x00, 0x00,
   0x00, 0x0f, 0x0f, 0xf0, 0xfc, 0x00, 0x00, 0x00, 0x00, 0x00, 0x00, 0xdf,
   0x01, 0x00, 0x00, 0x00, 0x00, 0x00, 0x1f, 0x07, 0x00, 0x00, 0x00, 0x00,
   0xc0, 0x9f, 0x03, 0x00, 0x00, 0x00, 0x00, 0x00, 0xff, 0xff, 0xff, 0xff,
   0xff, 0x00, 0x00, 0x00, 0x00, 0x00, 0x00, 0xee, 0x01, 0x00, 0x00, 0x00,
   0x00, 0x00, 0xfe, 0x03, 0x00, 0x00, 0x00, 0x00, 0x00, 0xff, 0x01, 0x00,
   0x00, 0x00, 0x00, 0x00, 0xff, 0xff, 0xff, 0xff, 0x7f, 0x00, 0x00, 0x00,
   0x00, 0x00, 0x00, 0xee, 0x00, 0x00, 0x00, 0x00, 0x00, 0x00, 0xfc, 0x01,
   0x00, 0x00, 0x00, 0x00, 0x00, 0xfe, 0x00, 0x00, 0x00, 0x00, 0x00, 0x00,
   0xff, 0xff, 0xff, 0xff, 0x3f, 0x00, 0x00, 0x00, 0x00, 0x00, 0x00, 0x5e,
   0x00, 0x00, 0x00, 0x00, 0x00, 0x00, 0xfc, 0x01, 0x00, 0x00, 0x00, 0x00,
   0x00, 0x7e, 0x00, 0x00, 0x00, 0x00, 0x00, 0x00, 0xff, 0xff, 0xff, 0xff,
   0x1f, 0x00, 0x00, 0x00, 0x00, 0x00, 0x00, 0x18, 0x00, 0x00, 0x00, 0x00,
   0x00, 0x00, 0x70, 0x00, 0x00, 0x00, 0x00, 0x00, 0x00, 0x18, 0x00, 0x00,
   0x00, 0x00, 0x00, 0x00};
