#define sleigh1_0_width 64
#define sleigh1_0_height 8
static char sleigh1_0_bits[] = {
   0x20, 0x00, 0x00, 0x00, 0x00, 0x00, 0x00, 0x00, 0x20, 0x00, 0x00, 0x08,
   0x00, 0x02, 0x80, 0x00, 0x60, 0x00, 0x00, 0x05, 0x40, 0x01, 0x50, 0x00,
   0xb2, 0x01, 0x00, 0x02, 0x80, 0x00, 0x20, 0x00, 0xb2, 0x04, 0x10, 0xa2,
   0x84, 0x28, 0x21, 0x00, 0xfe, 0x2c, 0xe1, 0x03, 0xf8, 0x00, 0x3e, 0x00,
   0x94, 0x02, 0x60, 0x01, 0x58, 0x00, 0x16, 0x00, 0xff, 0x01, 0x10, 0x02,
   0x84, 0x00, 0x21, 0x00};
