#define sleigh3_0_width 256
#define sleigh3_0_height 32
static char sleigh3_0_bits[] = {
   0x00, 0x00, 0xc0, 0x00, 0x00, 0x00, 0x00, 0x00, 0x00, 0x00, 0x00, 0x00,
   0x00, 0x00, 0x00, 0x00, 0x00, 0x00, 0x00, 0x00, 0x00, 0x00, 0x00, 0x00,
   0x00, 0x00, 0x00, 0x00, 0x00, 0x00, 0x00, 0x00, 0x00, 0x00, 0xe0, 0x00,
   0x00, 0x00, 0x00, 0x00, 0x00, 0x00, 0x00, 0x00, 0x00, 0x00, 0x00, 0x00,
   0x00, 0x00, 0x00, 0x00, 0x00, 0x00, 0x00, 0x00, 0x00, 0x00, 0x00, 0x00,
   0x00, 0x00, 0x00, 0x00, 0x00, 0x00, 0xf0, 0x00, 0x00, 0x00, 0x00, 0x00,
   0x00, 0x00, 0x00, 0x00, 0x00, 0x08, 0x00, 0x00, 0x00, 0x00, 0x00, 0x00,
   0x40, 0x00, 0x00, 0x00, 0x00, 0x00, 0x00, 0x00, 0x00, 0x00, 0x00, 0x00,
   0x00, 0x00, 0xf0, 0x00, 0x00, 0x00, 0x00, 0x00, 0x00, 0x00, 0x00, 0x00,
   0x00, 0x08, 0x00, 0x00, 0x00, 0x00, 0x00, 0x00, 0x40, 0x00, 0x00, 0x00,
   0x00, 0x00, 0x80, 0x09, 0x00, 0x00, 0x00, 0x00, 0x00, 0x00, 0xf0, 0x00,
   0x00, 0x00, 0x00, 0x00, 0x00, 0x00, 0x00, 0x00, 0x00, 0x18, 0x00, 0x00,
   0x00, 0x00, 0x00, 0x00, 0x60, 0x00, 0x00, 0x00, 0x00, 0x00, 0x18, 0x9b,
   0x00, 0x00, 0x00, 0x00, 0x00, 0x00, 0xf0, 0x00, 0x00, 0x00, 0x00, 0x00,
   0x00, 0x00, 0x00, 0x00, 0x04, 0xc8, 0x01, 0x00, 0x00, 0x00, 0x00, 0x00,
   0x64, 0x00, 0x00, 0x00, 0x00, 0x40, 0x08, 0x87, 0x00, 0x00, 0x00, 0x00,
   0x00, 0x00, 0xf0, 0x00, 0x00, 0x00, 0x00, 0x00, 0x00, 0x00, 0x00, 0x00,
   0x0c, 0xf0, 0x00, 0x00, 0x00, 0x00, 0x00, 0x21, 0x28, 0x00, 0x00, 0x00,
   0x00, 0xc0, 0x08, 0x43, 0x00, 0x00, 0x00, 0x00, 0x00, 0x00, 0xf0, 0x00,
   0x00, 0x00, 0x00, 0x00, 0x00, 0x00, 0x00, 0x00, 0x08, 0x70, 0x00, 0x00,
   0x00, 0x00, 0x00, 0x31, 0x18, 0x00, 0x00, 0x00, 0x00, 0x80, 0x04, 0x31,
   0x00, 0x00, 0x00, 0x00, 0x00, 0x00, 0xf0, 0x0f, 0x00, 0x00, 0x00, 0x00,
   0x00, 0x00, 0x00, 0x00, 0x08, 0x30, 0x00, 0x00, 0x00, 0x00, 0x00, 0x09,
   0x08, 0x00, 0x00, 0x00, 0x00, 0x00, 0x05, 0x0b, 0x00, 0x00, 0x00, 0x00,
   0x00, 0x00, 0xf0, 0x0f, 0x00, 0x00, 0x00, 0x00, 0x00, 0x00, 0x00, 0x00,
   0x08, 0x18, 0x00, 0x00, 0x00, 0x00, 0x00, 0x0f, 0x0c, 0x00, 0x00, 0x00,
   0x00, 0x00, 0x07, 0x07, 0x00, 0x00, 0x00, 0x00, 0x00, 0x00, 0xf0, 0x0f,
   0x00, 0x00, 0x00, 0x00, 0x00, 0x00, 0x00, 0x00, 0x10, 0x08, 0x00, 0x00,
   0x00, 0x00, 0x00, 0x04, 0x06, 0x00, 0x00, 0x00, 0x00, 0x00, 0x1f, 0x05,
   0x00, 0x00, 0x00, 0x00, 0x00, 0x00, 0xf0, 0x0f, 0x00, 0x00, 0x00, 0x00,
   0x00, 0x00, 0x00, 0x00, 0x30, 0x07, 0x00, 0x00, 0x00, 0x00, 0x00, 0x08,
   0x07, 0x00, 0x00, 0x00, 0x00, 0x00, 0x0e, 0x03, 0x00, 0x00, 0x00, 0x00,
   0xf0, 0x00, 0xfc, 0xf0, 0x0f, 0x00, 0x00, 0x00, 0x00, 0x00, 0x00, 0x00,
   0xe0, 0x02, 0x00, 0x00, 0x00, 0x00, 0x00, 0xf0, 0x00, 0x00, 0x00, 0x00,
   0x00, 0x00, 0xf0, 0x00, 0x00, 0x00, 0x00, 0x00, 0xf0, 0x00, 0xfe, 0xf0,
   0x3f, 0x00, 0x00, 0x00, 0x00, 0x00, 0x00, 0x00, 0xf0, 0x00, 0x00, 0x00,
   0x00, 0x00, 0x00, 0xf0, 0x00, 0x00, 0x00, 0x00, 0x00, 0x00, 0xf0, 0x00,
   0x00, 0x00, 0x00, 0x00, 0xf0, 0x00, 0xff, 0xf0, 0x4f, 0x00, 0x00, 0x00,
   0x00, 0x00, 0x00, 0x00, 0xf0, 0x00, 0x00, 0x00, 0x00, 0x00, 0x00, 0xf0,
   0x00, 0x00, 0x00, 0x00, 0x00, 0x00, 0xf0, 0x00, 0x00, 0x00, 0x00, 0x00,
   0xf0, 0x00, 0xff, 0xf0, 0x8f, 0x00, 0x00, 0x00, 0x00, 0x00, 0x00, 0x00,
   0xf0, 0x00, 0x00, 0x00, 0x00, 0x00, 0x00, 0xf0, 0x00, 0x00, 0x00, 0x00,
   0x00, 0x00, 0xf0, 0x00, 0x00, 0x00, 0x00, 0x00, 0xf0, 0x00, 0xff, 0xf0,
   0x01, 0x0f, 0x00, 0x00, 0x00, 0x00, 0x01, 0x00, 0xf0, 0x00, 0xe0, 0x00,
   0x00, 0x02, 0x00, 0xf0, 0x00, 0xc0, 0x00, 0x00, 0xf8, 0xff, 0xff, 0x00,
   0x00, 0x00, 0x00, 0x00, 0xf0, 0x00, 0xff, 0xf0, 0x01, 0x0f, 0x00, 0x00,
   0x00, 0x00, 0x03, 0x00, 0xf8, 0xff, 0xff, 0x70, 0xc0, 0x0f, 0x80, 0xff,
   0x1f, 0x70, 0x70, 0xc0, 0x1f, 0x00, 0xf0, 0x00, 0x00, 0x00, 0x00, 0x00,
   0xf0, 0x00, 0xff, 0xf0, 0x01, 0x1f, 0x00, 0x00, 0x00, 0x00, 0x07, 0x80,
   0xf7, 0x00, 0xf0, 0xff, 0xa0, 0xbf, 0x7b, 0xf0, 0xe0, 0xff, 0xff, 0x3f,
   0x38, 0x00, 0xf0, 0x00, 0x00, 0x00, 0x00, 0x00, 0xf0, 0x01, 0xff, 0xf0,
   0x00, 0x6f, 0x00, 0x00, 0x00, 0xf0, 0x0f, 0xfc, 0xf0, 0x00, 0xc0, 0xf0,
   0xfb, 0x7f, 0x00, 0xf0, 0x00, 0xf0, 0xf0, 0x00, 0x78, 0x00, 0xf0, 0x00,
   0x00, 0x00, 0x00, 0x00, 0xf0, 0xff, 0xff, 0xff, 0x00, 0xff, 0xf0, 0x00,
   0x0f, 0x0e, 0xfc, 0xff, 0xff, 0x00, 0x00, 0x00, 0x00, 0xfc, 0xff, 0xff,
   0x00, 0x00, 0x00, 0x00, 0xf8, 0xff, 0xff, 0x00, 0x00, 0x00, 0x00, 0x00,
   0xf0, 0xff, 0xff, 0xff, 0x80, 0xff, 0xff, 0xff, 0xff, 0x01, 0xfc, 0xff,
   0xff, 0x00, 0x00, 0x00, 0x00, 0xf8, 0xff, 0x7f, 0x00, 0x00, 0x00, 0x00,
   0xf0, 0xff, 0xff, 0x00, 0x00, 0x00, 0x00, 0x00, 0xe0, 0xff, 0xff, 0xff,
   0x80, 0xff, 0xf0, 0x00, 0x0f, 0x00, 0xf8, 0xff, 0x7f, 0x00, 0x00, 0x00,
   0x00, 0xf0, 0xff, 0x7f, 0x00, 0x00, 0x00, 0x00, 0xf0, 0xff, 0x7f, 0x00,
   0x00, 0x00, 0x00, 0x00, 0xc0, 0xff, 0xff, 0xff, 0xc0, 0xff, 0x80, 0x00,
   0x00, 0x00, 0xf8, 0xff, 0x3f, 0x00, 0x00, 0x00, 0x00, 0xf0, 0xff, 0x3f,
   0x00, 0x00, 0x00, 0x00, 0xf0, 0xff, 0x7f, 0x00, 0x00, 0x00, 0x00, 0x00,
   0x00, 0x0f, 0x0f, 0xf0, 0xf0, 0x07, 0x00, 0x00, 0x00, 0x00, 0xf8, 0xff,
   0x0f, 0x00, 0x00, 0x00, 0x00, 0xf0, 0xff, 0x1f, 0x00, 0x00, 0x00, 0x00,
   0xf0, 0xff, 0x3f, 0x00, 0x00, 0x00, 0x00, 0x00, 0x00, 0x0f, 0x0f, 0xf0,
   0xf0, 0x03, 0x00, 0x00, 0x00, 0x00, 0xf8, 0xff, 0x0f, 0x00, 0x00, 0x00,
   0x00, 0xf0, 0xff, 0x1f, 0x00, 0x00, 0x00, 0x00, 0xf0, 0xff, 0x3f, 0x00,
   0x00, 0x00, 0x00, 0x00, 0x00, 0x0f, 0x0f, 0xf0, 0xf8, 0x03, 0x00, 0x00,
   0x00, 0x00, 0xf8, 0xdf, 0x0f, 0x00, 0x00, 0x00, 0x00, 0x78, 0x00, 0x1f,
   0x00, 0x00, 0x00, 0x00, 0xf0, 0x1f, 0x3f, 0x00, 0x00, 0x00, 0x00, 0x00,
   0x00, 0x0f, 0x0f, 0xf0, 0xfc, 0x01, 0x00, 0x00, 0x00, 0x00, 0xf8, 0x07,
   0x1f, 0x00, 0x00, 0x00, 0x00, 0x3c, 0x00, 0x1f, 0x00, 0x00, 0x00, 0x00,
   0xf8, 0x0f, 0x7c, 0x00, 0x00, 0x00, 0x00, 0x00, 0xff, 0xff, 0xff, 0xff,
   0xfe, 0x00, 0x00, 0x00, 0x00, 0x00, 0x3c, 0x00, 0x7c, 0x00, 0x00, 0x00,
   0x00, 0x0e, 0x00, 0x7c, 0x00, 0x00, 0x00, 0x00, 0x68, 0x00, 0xf0, 0x00,
   0x00, 0x00, 0x00, 0x00, 0xff, 0xff, 0xff, 0xff, 0x7f, 0x00, 0x00, 0x00,
   0x00, 0x00, 0x0e, 0x00, 0xe0, 0x00, 0x00, 0x00, 0x00, 0x0e, 0x00, 0x70,
   0x00, 0x00, 0x00, 0x00, 0x3e, 0x00, 0xc0, 0x00, 0x00, 0x00, 0x00, 0x00,
   0xff, 0xff, 0xff, 0xff, 0x3f, 0x00, 0x00, 0x00, 0x00, 0x00, 0x0f, 0x00,
   0xc0, 0x00, 0x00, 0x00, 0x00, 0x07, 0x00, 0xe0, 0x00, 0x00, 0x00, 0x00,
   0x1e, 0x00, 0x80, 0x00, 0x00, 0x00, 0x00, 0x00, 0xff, 0xff, 0xff, 0xff,
   0x1f, 0x00, 0x00, 0x00, 0x00, 0x00, 0x03, 0x00, 0xc0, 0x01, 0x00, 0x00,
   0x80, 0x03, 0x00, 0xc0, 0x00, 0x00, 0x00, 0x00, 0x07, 0x00, 0x00, 0x01,
   0x00, 0x00, 0x00, 0x00};
